<?xml version="1.0" encoding="UTF-8"?>
<svg width="512" height="512" viewBox="0 0 512 512" fill="none" xmlns="http://www.w3.org/2000/svg">
  <rect width="512" height="512" rx="128" fill="#00acc1"/>
  <path d="M160 352V160H256C284.8 160 307.2 166.4 323.2 179.2C339.2 192 347.2 209.6 347.2 232C347.2 246.4 343.2 258.4 335.2 268C327.2 277.6 316.8 284.8 304 289.6C319.2 293.6 331.2 301.6 340 313.6C348.8 325.6 353.2 339.2 353.2 354.4C353.2 378.4 345.6 397.6 330.4 412C315.2 426.4 294.4 433.6 268 433.6H160V352ZM208 272H248C264 272 276 269.6 284 264.8C292 260 296 252 296 240.8C296 230.4 292 222.4 284 216.8C276 211.2 264 208.4 248 208.4H208V272ZM208 384H252C268.8 384 281.6 381.2 290.4 375.6C299.2 370 303.6 361.6 303.6 350.4C303.6 339.2 299.2 330.8 290.4 325.2C281.6 319.6 268.8 316.8 252 316.8H208V384Z" fill="white"/>
</svg> 