<?xml version="1.0" encoding="UTF-8"?>
<svg width="512" height="512" viewBox="0 0 512 512" fill="none" xmlns="http://www.w3.org/2000/svg">
  <rect width="512" height="512" rx="128" fill="#00acc1"/>
  <path d="M144 368V144H256C291.2 144 318.4 152 337.6 168C356.8 184 366.4 206.4 366.4 235.2C366.4 253.6 361.6 269.6 352 283.2C342.4 296 329.6 305.6 313.6 312C332.8 317.6 347.2 327.2 356.8 340.8C366.4 354.4 371.2 371.2 371.2 391.2C371.2 421.6 361.6 445.6 342.4 463.2C323.2 480.8 296 489.6 260.8 489.6H144V368ZM208 272H256C276.8 272 292 268.8 301.6 262.4C311.2 256 316 246.4 316 233.6C316 221.6 311.2 212 301.6 204.8C292 197.6 276.8 194 256 194H208V272ZM208 440H262.4C284 440 300 436.4 310.4 429.2C320.8 422 326 411.2 326 396.8C326 382.4 320.8 371.6 310.4 364.4C300 357.2 284 353.6 262.4 353.6H208V440Z" fill="white"/>
</svg> 