<?xml version="1.0" encoding="UTF-8"?>
<svg width="256px" height="256px" viewBox="0 0 256 256" version="1.1" xmlns="http://www.w3.org/2000/svg">
    <g fill="#3B2F4A">
        <path d="M38.4,115.2 C38.4,115.2 89.6,140.8 128,140.8 C166.4,140.8 217.6,115.2 217.6,115.2 L217.6,179.2 C217.6,179.2 166.4,204.8 128,204.8 C89.6,204.8 38.4,179.2 38.4,179.2 L38.4,115.2 Z"/>
        <path d="M38.4,51.2 C38.4,51.2 89.6,76.8 128,76.8 C166.4,76.8 217.6,51.2 217.6,51.2 L217.6,115.2 C217.6,115.2 166.4,140.8 128,140.8 C89.6,140.8 38.4,115.2 38.4,115.2 L38.4,51.2 Z"/>
    </g>
</svg> 