<?xml version="1.0" encoding="UTF-8"?>
<svg width="256px" height="256px" viewBox="0 0 256 256" version="1.1" xmlns="http://www.w3.org/2000/svg">
    <g fill="#777BB3">
        <path d="M128,0 C57.28,0 0,57.28 0,128 C0,198.72 57.28,256 128,256 C198.72,256 256,198.72 256,128 C256,57.28 198.72,0 128,0 Z M139.52,172.8 L128,172.8 L121.6,140.8 L102.4,140.8 L96,172.8 L84.48,172.8 L96,108.8 L115.2,108.8 L121.6,140.8 L134.4,140.8 L140.8,108.8 L160,108.8 L166.4,140.8 L179.2,140.8 L185.6,108.8 L204.8,108.8 L192,172.8 L180.48,172.8 L174.08,140.8 L154.88,140.8 L148.48,172.8 L139.52,172.8 Z"/>
    </g>
</svg> 